<?xml version="1.0" encoding="utf-8"?>
<!-- Generator: Adobe Illustrator 27.5.0, SVG Export Plug-In . SVG Version: 6.00 Build 0)  -->
<svg version="1.1" id="Capa_1" xmlns="http://www.w3.org/2000/svg" xmlns:xlink="http://www.w3.org/1999/xlink" x="0px" y="0px"
	 viewBox="0 0 2122 2122" style="enable-background:new 0 0 2122 2122;" xml:space="preserve">
<path style="fill:#F49926;" d="M1938.959,756.892c-13.554-14.273-38.105-7.584-53.398,4.806
	c-15.298,12.39-27.337,29.618-45.593,36.984c14.003-40.636,27.084-88.818,2.134-123.812c-6.748-9.461-17.032-17.532-28.647-17.369
	c-9.004,0.129-17.296,5.206-23.64,11.588c-23.776,23.907-23.308,61.893-33.919,93.897c-18.266,55.094-70.363,92.232-123.957,114.514
	c-53.593,22.282-111.434,33.668-163.839,58.616c-2.504,1.192-5.123,2.505-7.789,3.872c34.493-38.116,78.052-68.695,122.82-94.673
	c46.675-27.086,98.875-53.608,121.803-102.46c8.477-18.066,11.796-40.702,0.521-57.172c-11.274-16.468-40.877-18.875-49.447-0.848
	c20.862-39.761,40.249-80.875,49.486-124.819c9.238-43.941,7.659-91.357-12.068-131.695c-5.998-12.261-14.821-24.658-28.059-27.986
	c-15.722-3.951-32.126,6.94-39.892,21.167c-7.766,14.229-8.911,31.006-9.886,47.184c-12.112-79.993-43.951-161.603-108.711-210.1
	c-13.16-9.854-29.705-18.499-45.442-13.737c-14.261,4.319-23.474,18.933-25.744,33.664c-2.271,14.729,1.101,29.686,4.687,44.154
	c30.095,121.464,76.73,247.444,43.727,368.148c-20.016,73.214-67.291,135.109-108.359,199.09
	c14.223-42.982,29.01-85.897,36.125-131.509c9.087-58.21,12.039-117.383,8.609-176.202c-3.654-62.621-15.43-127.296-52.21-178.112
	c-4.955-6.845-12.409-14.129-20.56-11.898c-6.007,1.644-9.437,7.844-11.825,13.598c-8.351,20.129-12.115,42.102-11.196,63.872
	c-15.929-131.567-91.694-255.015-202.431-328.013c-18.236-12.025-37.876-22.933-59.459-26.329
	c-21.578-3.396-45.569,1.907-60.185,18.144c-20.141,22.363-16.916,57.077-8.029,85.829c10.986,35.54,28.58,68.645,46.938,100.999
	c35.654,62.847,74.612,123.822,116.648,182.594c-21.793-23.734-49.627-41.88-80.136-52.246c-21.32-7.242-47.176-9.9-64.345,4.665
	c-14.894,12.633-18.363,35.014-13.35,53.888c5.008,18.877,16.999,35.03,29.12,50.341c52.536,66.365,112.551,126.806,178.543,179.815
	c-19.678,3.895-41.232-13.932-58.723-4.117c-18.684,10.482-11.347,39.379,1.564,56.472c19.157,25.359,44.896,44.933,65.949,68.74
	c34.741,39.288,55.941,90.27,59.537,142.581c-100.315-52.194-211.096,21.677-295.483,90.462c-4.974,4.063-9.847,8.107-14.651,12.102
	c-2.791,2.324-5.534,4.628-8.258,6.933c-110.787,93.393-219.055,189.578-324.599,288.438c-5.486,5.12-10.952,10.241-16.39,15.362
	c-83.352,78.475-165.008,158.611-244.906,240.321c-5.091,5.194-10.187,10.412-15.283,15.654c-2.158,2.207-4.312,4.434-6.47,6.665
	c-44.687,46.037-88.887,92.682-128.599,142.738c-2.67,3.357-5.345,6.811-7.815,10.363c-6.324,8.965-11.469,18.597-12.473,29.228
	c-0.122,1.277-0.219,2.499-0.268,3.722c-2.87,60.936,69.408,73.993,149.549,70.368c5.681-0.273,11.415-0.614,17.15-1.057
	c73.398-5.291,149.374-22.514,177.671-28.395c51.474-10.679,102.363-24.672,152.317-41.676c6.002-2.032,12.005-4.112,17.983-6.271
	c110.645-39.42,216.555-93.637,314.167-159.396c5.954-3.971,11.854-8.039,17.734-12.126c49.589-34.451,96.926-71.907,141.54-111.893
	c19.624-17.593,38.757-35.746,57.354-54.441c5.023-5.047,10.071-10.217,15.089-15.483
	c85.164-89.276,169.568-211.751,139.283-337.632c-2.889-12.132-6.884-24.283-12.029-36.458c-3.959-9.389-8.534-18.462-13.642-27.216
	c51.76-31.448,112.583-47.973,173.155-46.404c43.279,1.12,86.051,11.101,129.344,10.901c43.289-0.2,89.783-12.853,116.127-47.208
	c2.573-3.357,4.984-7.031,5.681-11.206c1.544-9.25-6.12-18.029-14.986-21.074c-8.873-3.045-18.573-1.791-27.859-0.499
	c46.114-16.429,91.23-38.161,127.196-71.372c35.971-33.213,62.114-79.145,63.674-128.075
	C1947.987,777.211,1946.662,765.006,1938.959,756.892z"/>
<path style="fill:#76A345;" d="M1938.959,756.892c-13.554-14.273-38.105-7.584-53.398,4.806
	c-15.298,12.39-27.337,29.618-45.593,36.984c14.003-40.636,27.084-88.818,2.134-123.812c-6.748-9.461-17.032-17.532-28.647-17.369
	c-9.004,0.129-17.296,5.206-23.64,11.588c-23.776,23.907-23.308,61.893-33.919,93.897c-18.266,55.094-70.363,92.232-123.957,114.514
	c-53.593,22.282-111.434,33.668-163.839,58.616c-2.504,1.192-5.123,2.505-7.789,3.872c34.493-38.116,78.052-68.695,122.82-94.673
	c46.675-27.086,98.875-53.608,121.803-102.46c8.477-18.066,11.796-40.702,0.521-57.172c-11.274-16.468-40.877-18.875-49.447-0.848
	c20.862-39.761,40.249-80.875,49.486-124.819c9.238-43.941,7.659-91.357-12.068-131.695c-5.998-12.261-14.821-24.658-28.059-27.986
	c-15.722-3.951-32.126,6.94-39.892,21.167c-7.766,14.229-8.911,31.006-9.886,47.184c-12.112-79.993-43.951-161.603-108.711-210.1
	c-13.16-9.854-29.705-18.499-45.442-13.737c-14.261,4.319-23.474,18.933-25.744,33.664c-2.271,14.729,1.101,29.686,4.687,44.154
	c30.095,121.464,76.73,247.444,43.727,368.148c-20.016,73.214-67.291,135.109-108.359,199.09
	c14.223-42.982,29.01-85.897,36.125-131.509c9.087-58.21,12.039-117.383,8.609-176.202c-3.654-62.621-15.43-127.296-52.21-178.112
	c-4.955-6.845-12.409-14.129-20.56-11.898c-6.007,1.644-9.437,7.844-11.825,13.598c-8.351,20.129-12.115,42.102-11.196,63.872
	c-15.929-131.567-91.694-255.015-202.431-328.013c-18.236-12.025-37.876-22.933-59.459-26.329
	c-21.578-3.396-45.569,1.907-60.185,18.144c-20.141,22.363-16.916,57.077-8.029,85.829c10.986,35.54,28.58,68.645,46.938,100.999
	c35.654,62.847,74.612,123.822,116.648,182.594c-21.793-23.734-49.627-41.88-80.136-52.246c-21.32-7.242-47.176-9.9-64.345,4.665
	c-14.894,12.633-18.363,35.014-13.35,53.888c5.008,18.877,16.999,35.03,29.12,50.341c52.536,66.365,112.551,126.806,178.543,179.815
	c-19.678,3.895-41.232-13.932-58.723-4.117c-18.684,10.482-11.347,39.379,1.564,56.472c19.157,25.359,44.896,44.933,65.949,68.74
	c34.741,39.288,55.941,90.27,59.537,142.581c0.135,1.97,0.3,3.938,0.385,5.911c0.483,11.192-0.858,37.047,2.34,59.249
	c4.545,11.555,11.225,22.244,19.991,31.425c0.051,0.055,0.096,0.116,0.148,0.171c1.589,1.655,3.257,3.182,4.922,4.718
	c7.51,6.927,15.784,12.71,25.1,17.241c3.967,1.926,8.278,3.33,12.611,4.702c0.88-0.613,1.757-1.23,2.612-1.862
	c1.14-0.842,2.257-1.692,3.35-2.528c8.815-6.749,18.029-12.953,27.513-18.714c51.76-31.448,112.583-47.973,173.155-46.404
	c43.279,1.12,86.051,11.101,129.344,10.901c43.289-0.2,89.783-12.853,116.127-47.208c2.573-3.357,4.984-7.031,5.681-11.206
	c1.544-9.25-6.12-18.029-14.986-21.074c-8.873-3.045-18.573-1.791-27.859-0.499c46.114-16.429,91.23-38.161,127.196-71.372
	c35.971-33.213,62.114-79.145,63.674-128.075C1947.987,777.211,1946.662,765.006,1938.959,756.892z"/>
<path style="fill:#E9771A;" d="M1400.972,1167.006c-2.889-12.132-6.884-24.283-12.029-36.458
	c-3.959-9.389-8.534-18.462-13.642-27.216c-9.484,5.762-18.698,11.965-27.513,18.714c-1.093,0.836-2.21,1.686-3.35,2.528
	c-0.758,0.688-1.514,1.345-2.268,1.971c-0.115-0.036-0.229-0.072-0.344-0.109c-4.333-1.371-8.644-2.775-12.611-4.702
	c-9.315-4.531-17.589-10.314-25.1-17.241c-1.665-1.535-3.334-3.063-4.922-4.718c-0.052-0.055-0.097-0.116-0.148-0.171
	c-8.766-9.182-15.446-19.87-19.991-31.425c-4.125-10.486-6.508-21.677-6.91-33.169c-0.736-21.136-33.885-21.16-32.892,0
	c1.496,31.825,13.637,62.762,36.648,85.281c7.748,7.584,16.802,13.862,26.427,18.967c-10.913,53.13-30.078,104.422-58.597,151.128
	c-22.679,37.143-50.51,70.736-80.264,102.586c-2.321-2.031-4.599-4.113-6.956-6.104c-19.376-16.394-41.866-37.023-67.225-42.704
	c-5.613-1.252-8.599,4.921-5.266,9.086c15.727,19.771,40.277,33.028,59.532,49.345c1.985,1.682,3.902,3.442,5.864,5.154
	c-6.441,6.665-12.921,13.288-19.462,19.835c-47.63,47.666-98.304,93.317-151.637,135.561
	c-15.707-22.083-32.676-43.272-51.077-63.162c-11.659-12.594-23.737-24.916-36.502-36.409
	c-11.786-10.607-23.766-21.705-38.733-27.391c-5.369-2.031-10.217,4.999-7.328,9.554c8.405,13.379,21.121,23.377,32.414,34.275
	c11.907,11.494,23.542,23.206,34.665,35.455c17.598,19.416,34.072,39.843,49.317,61.137
	c-95.048,73.154-198.322,135.115-308.093,177.755c-10.208-13.521-20.95-26.637-32.38-39.121
	c-20.336-22.197-42.631-46.329-69.827-59.386c-3.771-1.813-9.701,2.329-6.514,6.494c17.539,22.904,40.643,41.866,60.122,63.576
	c10.309,11.482,20.214,23.326,29.662,35.525c-49.195,17.985-99.65,32.041-151.212,41.479c-3.197-6.191-6.536-12.047-9.305-17.247
	c-11.415-21.486-24.551-42.071-39.177-61.52c-18.226-24.234-38.831-47.825-62.305-67.523c-5.091,5.194-10.187,10.412-15.283,15.654
	c20.969,19.942,41.33,40.424,59.337,63.454c13.623,17.423,25.871,35.941,36.799,55.152c2.937,5.16,5.703,10.401,8.413,15.672
	c-21.567,3.385-43.297,6.05-65.227,7.748c-60.784,4.706-123.8,3.064-182.207,17.739c-6.324,8.965-11.469,18.597-12.473,29.228
	c-0.122,1.277-0.219,2.499-0.268,3.722c-2.87,60.936,69.408,73.993,149.549,70.368c5.681-0.273,11.415-0.614,17.15-1.057
	c73.398-5.291,149.374-22.514,177.671-28.395c51.474-10.679,102.363-24.672,152.317-41.676c6.002-2.032,12.005-4.112,17.983-6.271
	c110.645-39.42,216.555-93.637,314.167-159.396c5.954-3.971,11.854-8.039,17.734-12.126c49.589-34.451,96.926-71.907,141.54-111.893
	c19.624-17.593,38.757-35.746,57.354-54.441c5.023-5.047,10.071-10.217,15.089-15.483
	C1346.853,1415.362,1431.257,1292.886,1400.972,1167.006z"/>
<path style="fill:#D45F14;" d="M1017.523,1155.021c12.029,13.379,23.201,27.44,33.443,42.217
	c8.969,12.911,16.34,28.443,29.398,37.729c3.727,2.645,9.657-0.882,9.311-5.364c-1.296-17.374-13.325-32.414-23.152-46.11
	c-10.704-14.923-22.246-29.252-34.616-42.826c-15.732-17.223-32.731-33.077-51.059-47.186c-4.974,4.063-9.847,8.107-14.651,12.102
	C984.373,1120.945,1001.674,1137.384,1017.523,1155.021z"/>
<path style="fill:#D45F14;" d="M674.693,1481.437c12.765,17.199,24.283,35.23,34.938,53.803c5.661,9.871,11.05,19.868,16.073,30.085
	c4.458,9.091,7.718,19.21,16.487,24.916c4.068,2.67,10.758,0.195,11.688-4.751c1.934-10.095-2.719-18.942-6.909-27.98
	c-4.779-10.314-9.876-20.482-15.337-30.48c-11.22-20.531-24.204-40.132-38.27-58.821c-13.476-17.885-27.907-35.01-43.488-51.084
	c-5.364-5.564-10.875-10.952-16.536-16.17c-5.486,5.12-10.952,10.241-16.39,15.362c4.751,4.579,9.457,9.262,14.061,13.988
	C646.668,1446.353,661.367,1463.405,674.693,1481.437z"/>
<path style="fill:#31672C;" d="M1705.454,685.684c-11.274-16.468-40.877-18.875-49.447-0.848
	c20.862-39.761,40.249-80.875,49.486-124.819c9.238-43.941,7.659-91.357-12.068-131.695c-5.998-12.261-14.821-24.658-28.059-27.986
	c-15.722-3.951-32.126,6.94-39.892,21.167c-7.766,14.229-8.911,31.006-9.886,47.184c-12.112-79.993-43.951-161.603-108.711-210.1
	c-13.16-9.854-29.705-18.499-45.442-13.737c-14.261,4.319-23.474,18.933-25.744,33.664c-2.271,14.729,1.101,29.686,4.687,44.154
	c30.095,121.464,76.73,247.444,43.727,368.148c-20.016,73.214-67.291,135.109-108.359,199.09c-1.548,2.411-3.106,4.819-4.634,7.237
	c-28.658,45.339-84.359,139.144-72.066,202.462c0.051,0.055,0.096,0.116,0.148,0.171c1.589,1.655,3.257,3.182,4.922,4.718
	c7.676-66.938,99.159-135.265,156.194-164.504c34.493-38.116,78.052-68.695,122.82-94.673
	c46.675-27.086,98.875-53.608,121.803-102.46C1713.41,724.79,1716.728,702.154,1705.454,685.684z"/>
<path style="fill:#578730;" d="M1938.959,756.892c-13.554-14.273-38.105-7.584-53.398,4.806
	c-15.298,12.39-27.337,29.618-45.593,36.984c14.003-40.636,27.084-88.818,2.134-123.812c-6.748-9.461-17.032-17.532-28.647-17.369
	c-9.004,0.129-17.296,5.206-23.64,11.588c-23.776,23.907-23.308,61.893-33.919,93.897c-18.266,55.094-70.363,92.232-123.957,114.514
	c-53.593,22.282-111.434,33.668-163.839,58.616c-2.504,1.192-5.123,2.505-7.789,3.872
	c-57.035,29.239-148.518,97.566-156.194,164.504c7.51,6.927,15.784,12.71,25.1,17.241c3.967,1.926,8.278,3.33,12.611,4.702
	c0.88-0.613,1.757-1.23,2.612-1.862c1.14-0.842,2.257-1.692,3.35-2.528c8.815-6.749,18.029-12.953,27.513-18.714
	c51.76-31.448,112.583-47.973,173.155-46.404c43.279,1.12,86.051,11.101,129.344,10.901c43.289-0.2,89.783-12.853,116.127-47.208
	c2.573-3.357,4.984-7.031,5.681-11.206c1.544-9.25-6.12-18.029-14.986-21.074c-8.873-3.045-18.573-1.791-27.859-0.499
	c46.114-16.429,91.23-38.161,127.196-71.372c35.971-33.213,62.114-79.145,63.674-128.075
	C1947.987,777.211,1946.662,765.006,1938.959,756.892z"/>
<path style="fill:#D45F14;" d="M1299.045,1099.605c-8.766-9.182-15.446-19.87-19.991-31.425c-4.125-10.486-6.508-21.677-6.91-33.169
	c-0.736-21.136-33.885-21.16-32.892,0c1.496,31.825,13.637,62.762,36.648,85.281c7.748,7.584,16.802,13.862,26.427,18.967
	c4.162,2.208,8.397,4.261,12.735,5.998c12.506,5.008,30.66,10.753,43.766,5.379c7.089-2.913,8.862-11.693,2.119-16.234
	c-5.54-3.728-12.176-5.77-18.777-7.857c-0.115-0.036-0.229-0.072-0.344-0.109c-4.333-1.371-8.644-2.775-12.611-4.702
	c-9.315-4.531-17.589-10.314-25.1-17.241c-1.665-1.535-3.334-3.063-4.922-4.718
	C1299.141,1099.721,1299.096,1099.66,1299.045,1099.605z"/>
<path style="fill:#D45F14;" d="M1163.465,1392.973c-2.321-2.031-4.599-4.113-6.956-6.104
	c-19.376-16.394-41.866-37.023-67.225-42.704c-5.613-1.252-8.599,4.921-5.266,9.086c15.727,19.771,40.277,33.028,59.532,49.345
	c1.985,1.682,3.902,3.442,5.864,5.154c17.129,14.963,33.351,30.968,48.455,47.962c17.125,19.308,32.779,39.834,46.869,61.471
	c0.634,0.979,1.272,1.959,1.861,2.938c5.023-5.047,10.071-10.217,15.089-15.483c-14.724-22.076-31.576-42.826-48.19-61.788
	C1197.967,1425.126,1181.201,1408.494,1163.465,1392.973z"/>
<path style="fill:#D45F14;" d="M989.031,1578.508c-3.477-5.185-7.097-10.273-10.716-15.362
	c-15.707-22.083-32.676-43.272-51.077-63.162c-11.659-12.594-23.737-24.916-36.502-36.409
	c-11.786-10.607-23.766-21.705-38.733-27.391c-5.369-2.031-10.217,4.999-7.328,9.554c8.405,13.379,21.121,23.377,32.414,34.275
	c11.907,11.494,23.542,23.206,34.665,35.455c17.598,19.416,34.072,39.843,49.317,61.137c3.837,5.359,7.652,10.734,11.322,16.207
	c18.032,26.928,34.105,55.177,47.995,84.453c3.333,7.054,6.544,14.158,9.583,21.315c5.954-3.971,11.854-8.039,17.734-12.126
	c-2.865-6.69-5.856-13.354-8.94-19.947C1024.48,1635.961,1007.823,1606.508,989.031,1578.508z"/>
<path style="fill:#D45F14;" d="M652.978,1754.36c-10.208-13.521-20.95-26.637-32.38-39.121
	c-20.336-22.197-42.631-46.329-69.827-59.386c-3.771-1.813-9.701,2.329-6.514,6.494c17.539,22.904,40.643,41.866,60.122,63.576
	c10.309,11.482,20.214,23.326,29.662,35.525c9.278,11.979,18.117,24.299,26.445,36.972c13.842,21.116,26.334,43.118,37.335,65.827
	c6.002-2.032,12.005-4.112,17.983-6.271c-11.586-24.521-24.867-48.238-39.737-70.928
	C668.756,1775.898,661.021,1765.012,652.978,1754.36z"/>
<path style="fill:#D45F14;" d="M416.096,1735.746c13.623,17.423,25.871,35.941,36.799,55.152c2.937,5.16,5.703,10.401,8.413,15.672
	c2.397,4.664,4.75,9.352,7.119,14.043c4.658,9.262,9.311,20.901,17.617,27.42c2.524,1.959,7.396,1.861,8.059-2.134
	c2.268-13.669-4.145-29.159-11.275-42.972c-3.197-6.191-6.536-12.047-9.305-17.247c-11.415-21.486-24.551-42.071-39.177-61.52
	c-18.226-24.234-38.831-47.825-62.305-67.523c-5.091,5.194-10.187,10.412-15.283,15.654
	C377.728,1692.233,398.089,1712.715,416.096,1735.746z"/>
<path style="fill:#FAB857;" d="M945.372,1276.185c18.154-12.941,37.432-26.592,46.285-47.05c8.853-20.458,1.666-49.554-19.79-55.605
	c-19.688-5.549-38.524,9.925-53.16,24.214c-26.957,26.334-218.519,184.302-189.798,217.16c24.96,28.555,74.358-26.095,89.832-39.415
	C859.413,1340.487,901.684,1307.342,945.372,1276.185z"/>
<path style="fill:#FAB857;" d="M467.253,1677.919c28.214-9.637,47.425-52.019,65.262-74.017
	c27.045-33.35,55.547-65.622,79.776-101.145c3.961-5.812,7.561-14.372,2.348-19.094c-4.672-4.234-12.063-1.169-17.437,2.129
	c-58.831,36.112-111.142,84.964-149.851,142.25C432.973,1649.329,429.022,1690.976,467.253,1677.919z"/>
<path style="fill:#FAB857;" d="M1145.761,1172.37c25.13,29.145,40.156,62.84,61.813,93.988c2.007,2.889,6.241,1.101,5.598-2.358
	c-6.733-36.175-31.805-70.772-55.084-98.382c-23.133-27.435-52.852-57.978-87.347-70.353c-3.118-1.116-5.281,3.215-3.128,5.379
	C1092.724,1125.852,1122.254,1145.111,1145.761,1172.37z"/>
<path style="fill:#FAB857;" d="M1097.192,1055.922c31.703-15.63,59.493-19.077,94.173-21.791c1.91-0.149,2.27-2.655,0.448-3.308
	c-31.742-11.374-72.034-0.933-98.412,18.621C1089.567,1052.287,1092.782,1058.095,1097.192,1055.922z"/>
<path style="fill:#FAB857;" d="M897.859,1384.015c-2.592-1.184-5.301,1.827-3.153,4.088c19.927,20.964,44.278,37.486,64.751,58.07
	c20.56,20.678,38.631,43.118,57.223,65.51c2.261,2.719,6.529-0.77,4.813-3.712C994.161,1461.188,947.998,1406.879,897.859,1384.015z
	"/>
<path style="fill:#FAB857;" d="M592.286,1622.197c27.098,29.486,54.84,56.058,75.912,90.665c1.754,2.884,5.978,0.356,4.497-2.626
	c-17.612-35.386-42.494-71.742-76.882-92.609C592.919,1615.868,590.094,1619.81,592.286,1622.197z"/>
<path style="fill:#FAB857;" d="M405.718,1788.91c-4.653-21.116-18.085-45.476-39.459-53.564c-3.995-1.516-6.285,3.951-3.874,6.655
	c6.792,7.596,15.084,13.545,21.51,21.578c6.65,8.322,12.458,17.729,16.785,27.455
	C402.001,1794.007,406.357,1791.814,405.718,1788.91z"/>
<path style="fill:#FAB857;" d="M524.496,1882.761c-43.688,8.96-86.061,18.509-130.991,18.811c-20.794,0.141-41.7-1.018-62.343-3.508
	c-20.243-2.441-41.135-9.807-61.461-8.146c-3.528,0.292-5.14,4.862-1.856,6.85c16.01,9.681,36.083,10.85,54.455,12.897
	c25.15,2.806,50.402,3.488,75.664,2.109c43.035-2.343,88.038-8.774,127.946-25.656
	C527.921,1885.266,526.415,1882.367,524.496,1882.761z"/>
<path style="fill:#FAB857;" d="M933.123,1706.123c-28.94,18.456-57.515,37.457-87.43,54.339
	c-29.866,16.857-62.017,29.871-91.425,47.362c-3.844,2.285-1.335,8.516,3.065,7.274c64.132-18.1,129.062-61.471,179.035-104.765
	C938.668,1708.34,935.677,1704.491,933.123,1706.123z"/>
<path style="fill:#FAB857;" d="M1171.311,1533.929c-18.066,15.293-36.433,30.363-54.772,45.335
	c-18.139,14.797-38.48,27.61-55.357,43.82c-3.128,3.006,0.828,7.274,4.36,5.651c41.881-19.201,80.083-56.278,110.967-89.607
	C1179.764,1535.615,1174.892,1530.899,1171.311,1533.929z"/>
<path style="fill:#FAB857;" d="M1350.083,1311.824c-12.141,15.786-21.374,33.73-31.537,50.821
	c-10.173,17.106-21.573,33.481-31.279,50.855c-1.774,3.172,2.587,6.845,5.169,3.99c25.808-28.526,51.547-66.519,62.826-103.484
	C1356.275,1310.684,1351.9,1309.461,1350.083,1311.824z"/>
<path style="fill:#31672C;" d="M1304.521,705.711c6.046,40.15,10.163,80.681,13.143,121.591c0.356,4.869,7.522,4.979,7.659,0
	c1.141-41.709-1.805-83.73-7.9-125.395c20.128-7.832,36.931-23.898,44.431-48.307c1.457-4.74-4.97-6.806-7.557-3.184
	c-10.782,15.095-24.496,26.803-39.632,33.965c-5.96-35.526-14.156-70.71-24.046-105.152c25.969-5.691,50.767-19.168,63.795-42.044
	c1.418-2.487-1.359-4.989-3.771-3.771c-22.044,11.145-42.088,23.201-65.086,28.722c-2.638-8.638-5.342-17.241-8.175-25.767
	c-14.991-45.101-33.247-89.106-54.675-131.53c-21.131-41.832-44.112-90.263-78.066-123.257c-2.495-2.422-5.895,0.619-4.57,3.525
	c19.318,42.409,48.838,80.424,70.007,122.173c22.295,43.961,41.272,89.625,56.746,136.424c2.274,6.877,4.422,13.771,6.509,20.673
	c-4.273,0.536-8.659,0.841-13.198,0.845c-33.788,0.029-69.242-15.569-93.354-39.198c-4.307-4.219-10.182,2.007-6.499,6.497
	c25.505,31.074,58.762,49.564,99.854,49.927c5.929,0.053,12.027-0.33,18.148-1.094c9.989,35.633,17.66,71.597,23.635,107.877
	c-23.233,6.709-48.669,2.849-71.576-15.423c-4.746-3.786-11.24,2.239-6.821,6.82C1245.206,703.11,1276.665,711.482,1304.521,705.711
	z"/>
<path style="fill:#31672C;" d="M1804.762,841.913c-25.88,29.576-47.586,55.654-82.646,75.41c-8.075,4.551-16.345,8.718-24.76,12.577
	c-2.19-15.696,2.109-32.002,14.002-45.446c4.18-4.726-2.217-11.167-6.928-6.93c-17.555,15.781-24.088,37.911-19.872,57.959
	c-20.686,8.598-42.099,15.522-63.631,21.57c-26.849,7.542-54.963,13.829-82.804,21.207c-4.276-9.385-6.41-19.852-5.659-30.898
	c0.351-5.162-7.542-6.024-8.872-1.201c-3.29,11.923-2.515,24.344,1.318,35.706c-41.918,11.773-82.651,26.892-116.869,53.494
	c-4.063,3.16,1.13,9.386,5.384,6.974c38.035-21.564,77.592-35.266,117.867-46.919c10.626,17.308,28.994,29.645,50.649,29.153
	c4.726-0.107,5.744-6.94,1.121-8.27c-15.044-4.331-28.043-13.244-37.127-25.031c36.388-10.114,73.282-19.138,110.106-31.281
	c10.372-3.42,21.432-7.389,32.709-11.959c4.802,10.195,12.755,19.245,23.865,25.781c3.908,2.294,8.366-3.199,4.921-6.376
	c-7.702-7.096-13.367-15.494-16.827-24.455c46.609-20.516,94.077-51.603,109.938-97.642
	C1811.777,842.059,1807.052,839.294,1804.762,841.913z"/>
<path style="fill:#76A345;" d="M1439.286,897.844c50.506-32.754,88-79.492,112.176-132.772c3.361-0.049,6.608-0.285,9.616-0.711
	c29.886-4.226,54.992-22.468,66.626-50.324c1.34-3.206-3.435-4.514-5.174-2.183c-15.914,21.283-40.542,37.138-65.151,39.259
	c24.919-61.924,32.498-131.477,22.27-197.747c17.45-2.395,33.352-11.752,41.19-29.302c1.379-3.091-1.837-7.973-5.344-5.342
	c-12.877,9.656-25.611,16.573-38.551,19.104c-10.224-51.559-31.416-100.547-63.871-141.638c-2.592-3.284-7.971,0.965-5.769,4.456
	c27.035,42.872,47.05,89.568,57.468,138.177c-11.865-0.36-23.987-4.725-36.635-14.523c-5.676-4.397-12.882,2.358-8.01,8.012
	c11.498,13.346,29.576,20.885,47.562,21.603c6.599,38.536,7.112,78.133,0,117.914c-5.02,28.068-13.354,54.289-24.429,78.948
	c-13.232-1.895-25.961-8.352-36.77-20.734c-2.075-2.377-6.645-0.538-6.407,2.653c1.442,19.158,18.755,28.419,36.853,31.338
	c-24.353,48.706-59.45,91.258-100.619,129.965C1434.316,895.881,1436.933,899.372,1439.286,897.844z"/>
</svg>
